<svg width="800" height="500" viewBox="0 0 283 125" fill="none" xmlns="http://www.w3.org/2000/svg">
  <path d="M135.039 43.791V64.8328H130.55V56.0955H121.005V64.781H116.516V43.791H121.005V52.063H130.55V43.791H135.039Z"
    fill="#485776" />
  <path
    d="M141.594 54.2865C141.594 48.3929 146.702 43.4297 152.739 43.4297C158.827 43.4297 163.883 48.3929 163.883 54.2865C163.883 60.1804 158.827 65.1952 152.739 65.1952C146.753 65.1952 141.594 60.1804 141.594 54.2865ZM159.291 54.2865C159.291 50.6675 156.299 47.5138 152.739 47.5138C149.23 47.5138 146.237 50.6159 146.237 54.2865C146.237 57.9572 149.23 61.0592 152.739 61.0592C156.299 61.0592 159.291 57.9572 159.291 54.2865Z"
    fill="#485776" />
  <path
    d="M183.129 64.8328L178.331 58.0085H174.977V64.8328H170.488V43.791H179.93C184.471 43.791 187.825 46.738 187.825 50.8739C187.825 53.9758 185.915 56.4574 183.078 57.4397L188.237 64.781H183.129V64.8328ZM174.977 53.8725H179.414C181.633 53.8725 183.181 52.6835 183.181 50.9256C183.181 49.1161 181.633 47.9786 179.414 47.9786H174.977V53.8725Z"
    fill="#485776" />
  <path
    d="M194.633 43.791H199.122L209.235 57.388V43.791H213.775V64.8328H209.235L199.122 51.2358V64.8328H194.633V43.791Z"
    fill="#485776" />
  <path
    d="M225.852 47.8235V52.0111H236.378V56.0955H225.852V60.7485H237.513V64.8328H221.363V43.791H237.513V47.8235H225.852Z"
    fill="#485776" />
  <path d="M249.584 47.8244H243.031V43.7402H260.625V47.8244H254.073V64.7818H249.531V47.8244H249.584Z" fill="#485776" />
  <g opacity="0.8">
    <path opacity="0.6"
      d="M118.917 82.2956C120.072 82.2956 120.711 81.6789 121.075 81.047L120.148 80.5977C119.936 81.0164 119.48 81.3362 118.917 81.3362C118.036 81.3362 117.367 80.6283 117.367 79.6689C117.367 78.7095 118.036 78.0014 118.917 78.0014C119.48 78.0014 119.936 78.3288 120.148 78.7399L121.075 78.2832C120.718 77.6512 120.072 77.042 118.917 77.042C117.436 77.042 116.258 78.108 116.258 79.6689C116.258 81.2296 117.436 82.2956 118.917 82.2956Z"
      fill="#8493AD" />
    <path opacity="0.6"
      d="M122.547 79.6689C122.547 81.1993 123.664 82.2956 125.191 82.2956C126.726 82.2956 127.843 81.1993 127.843 79.6689C127.843 78.1386 126.726 77.042 125.191 77.042C123.664 77.042 122.547 78.1386 122.547 79.6689ZM126.734 79.6689C126.734 80.613 126.126 81.3362 125.191 81.3362C124.257 81.3362 123.656 80.613 123.656 79.6689C123.656 78.7172 124.257 78.0014 125.191 78.0014C126.126 78.0014 126.734 78.7172 126.734 79.6689Z"
      fill="#8493AD" />
    <path opacity="0.6"
      d="M134.079 82.2044H135.166V77.126H133.646L132.415 80.2933L131.184 77.126H129.672V82.2044H130.751V78.5497L132.18 82.2044H132.651L134.079 78.5497V82.2044Z"
      fill="#8493AD" />
    <path opacity="0.6"
      d="M141.65 82.2044H142.736V77.126H141.216L139.985 80.2933L138.754 77.126H137.242V82.2044H138.321V78.5497L139.75 82.2044H140.221L141.65 78.5497V82.2044Z"
      fill="#8493AD" />
    <path opacity="0.6"
      d="M144.812 80.179C144.812 81.4278 145.534 82.2957 147.085 82.2957C148.62 82.2957 149.342 81.4352 149.342 80.1714V77.126H148.247V80.141C148.247 80.849 147.86 81.3363 147.085 81.3363C146.294 81.3363 145.907 80.849 145.907 80.141V77.126H144.812V80.179Z"
      fill="#8493AD" />
    <path opacity="0.6"
      d="M154.91 82.2044H155.951V77.126H154.872V80.4152L152.524 77.126H151.414V82.2044H152.493V78.7933L154.91 82.2044Z"
      fill="#8493AD" />
    <path opacity="0.6" d="M158.023 82.2044H159.103V77.126H158.023V82.2044Z" fill="#8493AD" />
    <path opacity="0.6" d="M162.349 82.2044H163.435V78.0777H164.91V77.126H160.867V78.0777H162.349V82.2044Z"
      fill="#8493AD" />
    <path opacity="0.6"
      d="M168.086 82.2044H169.165V80.1257L171.102 77.126H169.871L168.625 79.1664L167.364 77.126H166.133L168.086 80.1257V82.2044Z"
      fill="#8493AD" />
    <path opacity="0.6"
      d="M175.656 82.2044H177.655C179.243 82.2044 180.345 81.1993 180.345 79.669C180.345 78.1386 179.243 77.126 177.655 77.126H175.656V82.2044ZM176.735 81.2526V78.0777H177.655C178.696 78.0777 179.243 78.7706 179.243 79.669C179.243 80.5294 178.658 81.2526 177.655 81.2526H176.735Z"
      fill="#8493AD" />
    <path opacity="0.6"
      d="M185.048 82.2044H186.287L185.147 80.2703C185.694 80.141 186.257 79.6613 186.257 78.7629C186.257 77.8189 185.611 77.126 184.554 77.126H182.184V82.2044H183.263V80.3846H184.053L185.048 82.2044ZM185.155 78.7553C185.155 79.1817 184.828 79.4558 184.395 79.4558H183.263V78.0547H184.395C184.828 78.0547 185.155 78.3289 185.155 78.7553Z"
      fill="#8493AD" />
    <path opacity="0.6" d="M188.137 82.2044H189.216V77.126H188.137V82.2044Z" fill="#8493AD" />
    <path opacity="0.6"
      d="M192.714 82.2044H194.067L196.02 77.126H194.789L193.391 81.0318L191.985 77.126H190.754L192.714 82.2044Z"
      fill="#8493AD" />
    <path opacity="0.6"
      d="M197.559 82.2044H201.145V81.2679H198.638V80.0877H201.092V79.1587H198.638V78.0547H201.145V77.126H197.559V82.2044Z"
      fill="#8493AD" />
    <path opacity="0.6"
      d="M206.558 82.2044H207.599V77.126H206.52V80.4152L204.172 77.126H203.062V82.2044H204.141V78.7933L206.558 82.2044Z"
      fill="#8493AD" />
    <path opacity="0.6" d="M212.684 82.2044H213.763V77.126H212.684V82.2044Z" fill="#8493AD" />
    <path opacity="0.6"
      d="M215.598 79.6689C215.598 81.1993 216.715 82.2956 218.242 82.2956C219.777 82.2956 220.894 81.1993 220.894 79.6689C220.894 78.1386 219.777 77.042 218.242 77.042C216.715 77.042 215.598 78.1386 215.598 79.6689ZM219.785 79.6689C219.785 80.613 219.177 81.3362 218.242 81.3362C217.307 81.3362 216.707 80.613 216.707 79.6689C216.707 78.7172 217.307 78.0014 218.242 78.0014C219.177 78.0014 219.785 78.7172 219.785 79.6689Z"
      fill="#8493AD" />
    <path opacity="0.6" d="M223.708 82.2044H224.795V78.0777H226.269V77.126H222.227V78.0777H223.708V82.2044Z"
      fill="#8493AD" />
    <path opacity="0.6"
      d="M231.088 82.2044H232.266L230.313 77.126H228.961L227 82.2044H228.186L228.505 81.3286H230.769L231.088 82.2044ZM229.637 78.0624L230.473 80.3922H228.793L229.637 78.0624Z"
      fill="#8493AD" />
    <path opacity="0.6"
      d="M240.321 82.2044H241.361V77.126H240.283V80.4152L237.934 77.126H236.824V82.2044H237.903V78.7933L240.321 82.2044Z"
      fill="#8493AD" />
    <path opacity="0.6"
      d="M243.188 79.6689C243.188 81.1993 244.304 82.2956 245.832 82.2956C247.367 82.2956 248.483 81.1993 248.483 79.6689C248.483 78.1386 247.367 77.042 245.832 77.042C244.304 77.042 243.188 78.1386 243.188 79.6689ZM247.374 79.6689C247.374 80.613 246.765 81.3362 245.832 81.3362C244.896 81.3362 244.297 80.613 244.297 79.6689C244.297 78.7172 244.896 78.0014 245.832 78.0014C246.765 78.0014 247.374 78.7172 247.374 79.6689Z"
      fill="#8493AD" />
    <path opacity="0.6"
      d="M250.312 82.2044H252.312C253.899 82.2044 255.001 81.1993 255.001 79.669C255.001 78.1386 253.899 77.126 252.312 77.126H250.312V82.2044ZM251.393 81.2526V78.0777H252.312C253.352 78.0777 253.899 78.7706 253.899 79.669C253.899 80.5294 253.314 81.2526 252.312 81.2526H251.393Z"
      fill="#8493AD" />
    <path opacity="0.6"
      d="M256.84 82.2044H260.427V81.2679H257.918V80.0877H260.372V79.1587H257.918V78.0547H260.427V77.126H256.84V82.2044Z"
      fill="#8493AD" />
  </g>
</svg>