<svg width="125" height="125" viewBox="0 0 125 125" fill="none" xmlns="http://www.w3.org/2000/svg">
  <path
    d="M92.3204 56.8258C91.1853 57.136 90.463 58.3767 90.824 59.5141C93.0945 67.631 90.979 75.2307 88.1928 79.6769C87.5735 80.7108 87.8831 82.0553 88.9151 82.6755C89.2762 82.8825 89.6889 82.9857 90.0502 82.9857C90.7726 82.9857 91.4948 82.6238 91.9077 81.9518C96.087 75.2826 97.2738 66.1834 95.0033 58.2732C94.6939 57.136 93.5072 56.464 92.3204 56.8258Z"
    fill="#C3D0E4" />
  <path
    d="M47.7369 92.6015C35.3022 88.2588 26.995 76.2645 26.995 62.771C26.995 54.7057 30.2973 46.6407 36.0244 40.6952C42.0098 34.4395 50.0587 31.0274 58.6237 31.0274C63.319 31.0274 68.066 32.0097 71.3682 33.6641C72.4516 34.2327 73.7417 33.7674 74.3091 32.6818C74.8251 31.596 74.4124 30.3035 73.3287 29.7349C69.4591 27.7702 64.093 26.6328 58.6237 26.6328C48.872 26.6328 39.6879 30.5621 32.8771 37.6448C26.376 44.4175 22.6094 53.5683 22.6094 62.771C22.6094 78.1256 32.1031 91.7743 46.2921 96.7375C46.5501 96.841 46.7565 96.841 47.0145 96.841C47.8916 96.841 48.7689 96.2721 49.0783 95.3933C49.4913 94.2559 48.872 93.0152 47.7369 92.6015Z"
    fill="#C3D0E4" />
  <path
    d="M85.8701 54.1381C91.3393 50.5191 94.8478 44.6771 96.0862 37.2839C96.9633 31.8037 96.2926 27.4094 96.2926 27.2024C96.1895 26.427 95.6735 25.8066 94.9511 25.4964C94.2288 25.1861 93.4033 25.3412 92.8357 25.8066L59.659 51.5014C60.2266 49.2265 59.8139 46.9 58.4725 45.0389C56.3053 42.1436 52.642 41.6266 49.7525 42.764L49.3398 42.5057C47.2243 41.1096 45.0056 40.7994 42.787 41.6266C38.5044 43.2294 35.1508 48.9163 33.706 53.8279C33.6027 54.2413 33.8091 54.7067 34.222 54.8618C34.3251 54.9134 34.4284 54.9134 34.5831 54.9134C34.8928 54.9134 35.2022 54.7583 35.3571 54.4481C37.6273 49.847 41.3939 45.8661 44.1285 45.194C44.9025 44.987 45.5732 45.0905 46.1407 45.4524L46.2956 45.5559C44.8509 47.3654 43.9738 49.6919 43.6641 52.4318C43.3545 55.2753 43.7674 58.3773 44.6961 60.4971C45.0572 61.3243 45.8312 61.7896 46.7083 61.7896C46.9147 61.7896 47.1727 61.7378 47.379 61.6861C49.3912 61.014 52.642 59.7215 55.3249 57.7053C54.9639 58.4808 54.7573 59.308 54.7059 60.1869C54.5509 62.2031 55.1702 64.1677 56.46 65.7186C57.7501 67.2698 59.6076 68.2519 61.6197 68.407C61.8261 68.407 62.0841 68.4588 62.2905 68.4588C62.3421 68.4588 62.4452 68.4588 62.4968 68.4588C60.6394 71.0956 59.9686 74.8178 61.723 78.9022C65.541 87.6909 60.7426 93.5332 57.3371 95.6011C56.5633 96.0664 56.1504 96.9968 56.4084 97.8759C56.6664 98.7547 57.4404 99.3752 58.3692 99.4268C58.6788 99.4268 58.9882 99.4268 59.2979 99.4268C71.5778 99.4268 76.9955 93.3781 79.1626 89.7074C82.6196 83.8135 82.4649 76.2136 78.7497 69.9063C76.8408 66.6493 73.1259 63.961 68.9466 64.5296C69.4623 63.5989 69.772 62.6168 69.8753 61.531C69.9784 60.342 69.8236 59.2045 69.3593 58.1187C70.3397 58.2222 71.3198 58.2738 72.3518 58.2738C76.5311 58.1187 81.3295 57.1883 85.8701 54.1381ZM48.1014 56.6713C47.8951 55.5339 47.7918 54.1897 47.9467 52.7937C48.1531 50.9844 48.7722 48.5544 50.7329 47.1586C51.1973 46.7966 51.9197 46.5898 52.642 46.5898C53.4675 46.5898 54.3446 46.9 54.9122 47.6756C55.944 49.123 55.4797 51.036 54.5509 52.2767C53.3128 53.8795 51.0423 55.4823 48.1014 56.6713ZM61.9294 63.961C61.0521 63.9091 60.2783 63.4956 59.7106 62.8236C59.1432 62.1515 58.8852 61.3243 58.9368 60.4452C58.9882 59.5664 59.4012 58.7911 60.0719 58.2222C60.6393 57.7053 61.4134 57.4466 62.1358 57.4466C62.2388 57.4466 62.3421 57.4466 62.3938 57.4466C63.2708 57.4985 64.0449 57.912 64.6123 58.5841C65.18 59.2562 65.438 60.0834 65.3863 60.9624C65.3347 61.8412 64.922 62.6168 64.2512 63.1854C63.6319 63.754 62.8065 64.0126 61.9294 63.961ZM70.0817 68.4588C71.4231 68.4588 72.8679 69.0274 74.1577 70.4751C74.3126 70.6302 74.3126 70.8369 74.261 70.9921C73.4869 72.6465 71.8358 74.6627 70.2364 75.6967C69.9784 75.8518 69.8753 76.2136 69.9783 76.4722C70.0816 76.7825 70.4427 76.9376 70.7524 76.8857C72.0422 76.6273 73.8996 75.9036 75.4477 74.9213C75.6024 74.8178 75.7057 74.7662 75.8604 74.6627C76.1184 74.456 76.5311 74.6111 76.6344 74.9213C77.3052 76.8341 77.6146 78.7987 77.5632 80.7115C77.5632 80.9184 77.4082 81.1252 77.2019 81.1768C75.5508 81.7456 73.5902 82.0559 72.0422 81.7973C71.6811 81.7456 71.3198 81.8489 71.2167 82.2108C71.0618 82.5728 71.2684 82.8828 71.5778 83.0898C72.7129 83.7619 74.4157 84.4856 76.2215 84.8993C76.5311 84.951 76.7375 85.3128 76.5828 85.5714C76.3248 86.2435 76.0151 86.8637 75.6541 87.4842C75.0864 88.4665 74.4157 89.3453 73.6416 90.1209C73.4869 90.276 73.2289 90.3276 73.0226 90.2244C72.1971 89.8107 71.4231 89.2937 70.8554 88.8284C70.6491 88.6216 70.3397 88.6216 70.1331 88.8284C69.9267 88.9835 69.8236 89.3453 69.9783 89.6039C70.2364 90.1209 70.7007 90.793 71.2167 91.5167C71.3715 91.7753 71.3198 92.0855 71.1134 92.2406C69.4623 93.2746 67.6049 94.0501 65.4894 94.5671C65.025 94.6704 64.7156 94.2053 64.922 93.7915C68.0692 88.6732 67.7598 82.2108 65.5927 77.1959C63.8899 73.2669 65.5927 70.2165 67.9145 69.0791C68.4305 68.6656 69.2043 68.4588 70.0817 68.4588ZM65.2316 52.7421L92.1649 31.8553C92.1133 36.922 90.8235 45.6075 83.445 50.5191C76.9439 54.8102 69.514 53.8795 65.2316 52.7421Z"
    fill="#485776" />
</svg>